<svg id="Layer_1" data-name="Layer 1" xmlns="http://www.w3.org/2000/svg" viewBox="0 0 130.86 44.44"><defs><style>.cls-1{fill:#9bafc1;}.cls-2{fill:#fff;}</style></defs><rect class="cls-1" width="130.86" height="44.44" rx="1.98"/><path class="cls-2" d="M38.73,25.57a2.46,2.46,0,0,0-.38-1.38,3.3,3.3,0,0,0-1.2-1,12.76,12.76,0,0,0-2.49-.89,11.79,11.79,0,0,1-2.49-.93A3.35,3.35,0,0,1,31,20.29a2.82,2.82,0,0,1-.38-1.49,2.71,2.71,0,0,1,1.17-2.27,5.12,5.12,0,0,1,3.07-.86,5,5,0,0,1,2.21.48,3.68,3.68,0,0,1,1.52,1.34,3.63,3.63,0,0,1,.53,2H38.6a3,3,0,0,0-1.05-2.37,4,4,0,0,0-2.74-.94,4.52,4.52,0,0,0-2.73.76A2.28,2.28,0,0,0,32,20.64a8.71,8.71,0,0,0,3,1.24,9.25,9.25,0,0,1,3,1.25,3,3,0,0,1,.69,4.14,3.48,3.48,0,0,1-1.55,1.14,5.9,5.9,0,0,1-2.25.41,6.57,6.57,0,0,1-2.49-.46A3.56,3.56,0,0,1,30.71,27a3.61,3.61,0,0,1-.56-2h.48a2.84,2.84,0,0,0,1.18,2.44,5,5,0,0,0,3.06.87,4.63,4.63,0,0,0,2.77-.77A2.34,2.34,0,0,0,38.73,25.57Z"/><path class="cls-2" d="M49,22.3H42.56v5.87h7.32v.47H42.09V15.85h7.79v.47H42.56v5.5H49Z"/><path class="cls-2" d="M64.14,24.82H57.87l-1.42,3.82h-.52l4.79-12.79h.58l4.79,12.79h-.52Zm-6.09-.48H64l-3-7.92Z"/><path class="cls-2" d="M69,28.17h6.57v.47h-7V15.85H69Z"/><path class="cls-2" d="M78.68,28.17h6.56v.47h-7V15.85h.49Z"/><path class="cls-2" d="M94.75,22.3H88.34v5.87h7.31v.47H87.86V15.85h7.79v.47H88.34v5.5h6.41Z"/></svg>